<svg xmlns="http://www.w3.org/2000/svg" viewBox="0 0 512 512" role="img" aria-label="Athena Machine Learning logo">
  <defs>
    <radialGradient id="bg" cx="50%" cy="36%" r="78%"><stop offset="0%" stop-color="#1b4b88"/><stop offset="46%" stop-color="#07172e"/><stop offset="100%" stop-color="#01040a"/></radialGradient>
    <linearGradient id="edge" x1="18%" y1="8%" x2="82%" y2="92%"><stop stop-color="#e7fbff"/><stop offset=".48" stop-color="#46a4ff"/><stop offset="1" stop-color="#7b70ff"/></linearGradient>
    <filter id="glow" x="-35%" y="-35%" width="170%" height="170%"><feGaussianBlur stdDeviation="4.5" result="b"/><feMerge><feMergeNode in="b"/><feMergeNode in="SourceGraphic"/></feMerge></filter>
    <filter id="shadow" x="-35%" y="-35%" width="170%" height="170%"><feDropShadow dx="0" dy="18" stdDeviation="18" flood-color="#000814" flood-opacity=".95"/></filter>
  </defs>
  <rect width="512" height="512" rx="96" fill="url(#bg)"/>
  <path d="M256 72c-65 24-103 76-110 153-4 53-27 96-67 129 66-4 119 10 160 42 41-32 94-46 160-42-40-33-63-76-67-129-7-77-45-129-110-153z" fill="#020711" opacity=".96" filter="url(#shadow)"/>
  <path d="M158 226c42-58 75-87 98-87s56 29 98 87M181 287c35-20 60-30 75-30s40 10 75 30" fill="none" stroke="url(#edge)" stroke-width="10" stroke-linecap="round" stroke-linejoin="round" filter="url(#glow)"/>
  <path d="M170 198h172M199 329h114" stroke="#55d9ff" stroke-width="6.5" stroke-linecap="round" opacity=".86" filter="url(#glow)"/>
  <circle cx="211" cy="225" r="10" fill="#f1f8ff" filter="url(#glow)"/><circle cx="301" cy="225" r="10" fill="#f1f8ff" filter="url(#glow)"/>
  <path d="M133 371c43-38 84-57 123-57s80 19 123 57" fill="none" stroke="#3b91ff" stroke-width="6" stroke-linecap="round" opacity=".84"/>
  <text x="256" y="438" text-anchor="middle" font-family="Orbitron,Segoe UI,Arial,sans-serif" font-size="34" font-weight="850" fill="#f1f8ff" letter-spacing="6">ATHENA</text>
</svg>
