<svg xmlns="http://www.w3.org/2000/svg" viewBox="0 0 512 512" role="img" aria-label="Chronos Time Series logo">
  <defs>
    <radialGradient id="bg" cx="50%" cy="36%" r="78%"><stop offset="0%" stop-color="#16457e"/><stop offset="46%" stop-color="#07172d"/><stop offset="100%" stop-color="#01040a"/></radialGradient>
    <linearGradient id="edge" x1="16%" y1="8%" x2="84%" y2="92%"><stop stop-color="#e5fbff"/><stop offset=".45" stop-color="#3b91ff"/><stop offset="1" stop-color="#55d9ff"/></linearGradient>
    <filter id="glow" x="-35%" y="-35%" width="170%" height="170%"><feGaussianBlur stdDeviation="4.5" result="b"/><feMerge><feMergeNode in="b"/><feMergeNode in="SourceGraphic"/></feMerge></filter>
    <filter id="shadow" x="-35%" y="-35%" width="170%" height="170%"><feDropShadow dx="0" dy="18" stdDeviation="18" flood-color="#000814" flood-opacity=".95"/></filter>
  </defs>
  <rect width="512" height="512" rx="96" fill="url(#bg)"/>
  <path d="M256 68c68 44 106 103 106 176s-38 132-106 176c-68-44-106-103-106-176S188 112 256 68z" fill="#020711" opacity=".96" filter="url(#shadow)"/>
  <circle cx="256" cy="238" r="124" fill="none" stroke="url(#edge)" stroke-width="10" filter="url(#glow)"/>
  <circle cx="256" cy="238" r="86" fill="none" stroke="#2f81f7" stroke-width="2" opacity=".45"/>
  <path d="M256 132v106l73 43" fill="none" stroke="#f1f8ff" stroke-width="10" stroke-linecap="round" stroke-linejoin="round" filter="url(#glow)"/>
  <path d="M132 352c39-47 79-70 120-69 45 2 70 33 124 5" fill="none" stroke="#55d9ff" stroke-width="7" stroke-linecap="round" opacity=".88" filter="url(#glow)"/>
  <path d="M136 206c25-11 51-17 77-18M303 188c33 3 61 14 84 32" stroke="#3b91ff" stroke-width="5" stroke-linecap="round" opacity=".72"/>
  <text x="256" y="438" text-anchor="middle" font-family="Orbitron,Segoe UI,Arial,sans-serif" font-size="31" font-weight="850" fill="#f1f8ff" letter-spacing="5">CHRONOS</text>
</svg>
